<?xml version="1.0" encoding="UTF-8"?>
<!DOCTYPE svg PUBLIC "-//W3C//DTD SVG 1.1//EN" "http://www.w3.org/Graphics/SVG/1.1/DTD/svg11.dtd">
<svg xmlns="http://www.w3.org/2000/svg" version="1.1" width="500px" height="500px" style="shape-rendering:geometricPrecision; text-rendering:geometricPrecision; image-rendering:optimizeQuality; fill-rule:evenodd; clip-rule:evenodd" xmlns:xlink="http://www.w3.org/1999/xlink">
<g><path style="opacity:0.998" fill="#010303" d="M 329.5,189.5 C 327.5,189.5 326.5,188.5 326.5,186.5C 359.504,150.994 392.004,114.994 424,78.5C 427.067,74.3944 429.067,74.7277 430,79.5C 397.296,115.202 364.963,151.202 333,187.5C 332.184,188.823 331.017,189.489 329.5,189.5 Z"/></g>
<g><path style="opacity:1" fill="#335e6b" d="M 227.5,-0.5 C 242.167,-0.5 256.833,-0.5 271.5,-0.5C 364.771,10.8702 432.938,58.2035 476,141.5C 488.541,169.008 496.374,197.674 499.5,227.5C 499.5,242.167 499.5,256.833 499.5,271.5C 494.429,322.294 476.096,367.627 444.5,407.5C 442.745,406.928 441.078,406.094 439.5,405C 403.574,371.899 367.24,339.399 330.5,307.5C 355.922,267.996 355.589,228.662 329.5,189.5C 331.017,189.489 332.184,188.823 333,187.5C 364.963,151.202 397.296,115.202 430,79.5C 429.067,74.7277 427.067,74.3944 424,78.5C 392.004,114.994 359.504,150.994 326.5,186.5C 300.51,156.446 267.843,144.946 228.5,152C 205.836,157.158 187.169,168.658 172.5,186.5C 171.078,186.291 169.745,185.791 168.5,185C 132.296,151.96 95.9627,119.126 59.5,86.5C 104.033,35.6961 160.033,6.69614 227.5,-0.5 Z"/></g>
<g><path style="opacity:0.998" fill="#020304" d="M 59.5,86.5 C 95.9627,119.126 132.296,151.96 168.5,185C 169.745,185.791 171.078,186.291 172.5,186.5C 171.136,188.191 169.803,189.858 168.5,191.5C 132.696,158.533 96.6957,125.699 60.5,93C 58.9221,91.9055 57.2554,91.0722 55.5,90.5C 56.5,88.8333 57.8333,87.5 59.5,86.5 Z"/></g>
<g><path style="opacity:1" fill="#335e6b" d="M 55.5,90.5 C 57.2554,91.0722 58.9221,91.9055 60.5,93C 96.6957,125.699 132.696,158.533 168.5,191.5C 143.242,230.465 143.242,269.465 168.5,308.5C 165.769,307.626 163.602,308.626 162,311.5C 129.996,347.669 97.8298,383.669 65.5,419.5C 27.2329,377.616 5.23294,328.283 -0.5,271.5C -0.5,256.833 -0.5,242.167 -0.5,227.5C 4.6546,176.206 23.3213,130.54 55.5,90.5 Z"/></g>
<g><path style="opacity:0.977" fill="#385c67" d="M 239.5,199.5 C 270.559,196.424 290.392,209.758 299,239.5C 302.366,261.421 295.199,278.921 277.5,292C 258.833,302 240.167,302 221.5,292C 198.458,273.324 193.291,250.491 206,223.5C 214.011,210.974 225.178,202.974 239.5,199.5 Z M 248.5,234.5 C 257.699,235.366 263.033,240.366 264.5,249.5C 260.889,262.807 252.889,266.641 240.5,261C 234.218,254.741 233.385,247.908 238,240.5C 241.069,237.554 244.569,235.554 248.5,234.5 Z"/></g>
<g><path style="opacity:1" fill="#020304" d="M 168.5,308.5 C 169.167,308.5 169.5,308.833 169.5,309.5C 137.23,346.276 104.73,382.942 72,419.5C 70.8904,421.037 69.3904,421.703 67.5,421.5C 66.5,421.167 65.8333,420.5 65.5,419.5C 97.8298,383.669 129.996,347.669 162,311.5C 163.602,308.626 165.769,307.626 168.5,308.5 Z"/></g>
<g><path style="opacity:0.996" fill="#020404" d="M 330.5,307.5 C 367.24,339.399 403.574,371.899 439.5,405C 441.078,406.094 442.745,406.928 444.5,407.5C 443.136,409.191 441.803,410.858 440.5,412.5C 403.466,378.131 366.133,344.131 328.5,310.5C 329.167,309.5 329.833,308.5 330.5,307.5 Z"/></g>
<g><path style="opacity:1" fill="#335e6b" d="M 169.5,309.5 C 202.22,347.182 242.22,357.682 289.5,341C 304.783,333.699 317.783,323.532 328.5,310.5C 366.133,344.131 403.466,378.131 440.5,412.5C 395.336,462.952 339.003,491.952 271.5,499.5C 256.833,499.5 242.167,499.5 227.5,499.5C 164.359,493.261 111.025,467.261 67.5,421.5C 69.3904,421.703 70.8904,421.037 72,419.5C 104.73,382.942 137.23,346.276 169.5,309.5 Z"/></g>
</svg>
